<?xml version="1.0" standalone="no"?>
<!DOCTYPE svg PUBLIC "-//W3C//DTD SVG 20010904//EN"
 "http://www.w3.org/TR/2001/REC-SVG-20010904/DTD/svg10.dtd">
<svg version="1.0" xmlns="http://www.w3.org/2000/svg"
 width="500.000000pt" height="500.000000pt" viewBox="0 0 500.000000 500.000000"
 preserveAspectRatio="xMidYMid meet">

<g transform="translate(0.000000,500.000000) scale(0.100000,-0.100000)"
fill="#000000" stroke="none">
<path d="M1090 3358 c-63 -28 -262 -93 -345 -113 -139 -32 -154 -35 -184 -35
-57 0 -61 -22 -61 -347 0 -351 17 -479 76 -595 l14 -27 26 24 c14 13 55 36 92
51 55 23 82 28 152 28 77 0 93 -4 170 -39 76 -34 95 -39 185 -43 107 -5 125
-12 125 -47 0 -39 -20 -44 -163 -47 -75 -2 -138 -7 -140 -11 -4 -17 79 -37
154 -37 126 0 189 39 189 116 0 40 4 45 93 123 50 45 102 84 115 88 25 6 62
-20 62 -44 0 -37 -230 -286 -325 -352 -67 -46 -132 -66 -215 -65 -85 1 -296
30 -322 45 -26 14 -22 1 10 -27 37 -34 207 -145 262 -172 105 -51 112 -50 250
21 202 105 370 266 440 421 60 132 63 151 67 534 4 312 3 356 -11 377 -11 16
-26 25 -43 25 -14 0 -42 4 -62 9 -20 5 -61 15 -91 21 -80 17 -267 76 -351 110
-83 35 -108 36 -169 8z m110 -258 c0 -33 3 -40 20 -40 29 0 104 -37 129 -64
l21 -22 -34 -33 -34 -33 -38 26 c-61 41 -65 38 -62 -60 l3 -86 54 -19 c93 -32
134 -87 133 -177 -1 -88 -59 -156 -154 -183 -33 -8 -38 -14 -38 -39 0 -28 -3
-30 -35 -30 -31 0 -35 3 -35 25 0 18 -8 28 -27 36 -81 32 -121 53 -152 78
l-33 27 36 32 c41 36 58 39 76 16 17 -19 79 -46 91 -38 5 3 9 45 9 93 l0 89
-46 11 c-59 15 -128 82 -138 135 -17 92 40 182 132 208 40 12 42 14 42 50 0
38 0 38 40 38 l40 0 0 -40z"/>
<path d="M1095 2947 c-51 -28 -60 -84 -19 -116 46 -36 54 -29 54 48 0 39 -3
72 -8 75 -4 2 -16 -1 -27 -7z"/>
<path d="M1201 2600 c-1 -39 1 -75 4 -80 10 -16 65 18 76 47 12 31 4 57 -24
83 -41 39 -54 27 -56 -50z"/>
<path d="M3865 3123 c11 -3 29 -12 40 -22 20 -16 20 -16 1 7 -11 12 -29 21
-40 21 -20 -1 -20 -2 -1 -6z"/>
<path d="M3571 3086 c20 -14 42 -39 49 -56 7 -17 15 -29 17 -26 15 15 -65 106
-93 106 -5 0 7 -11 27 -24z"/>
<path d="M4198 3103 c6 -2 18 -2 25 0 6 3 1 5 -13 5 -14 0 -19 -2 -12 -5z"/>
<path d="M4283 3063 c15 -16 27 -35 27 -43 0 -7 3 -10 7 -7 10 10 -18 57 -42
69 -15 8 -14 4 8 -19z"/>
<path d="M2476 2987 c3 -10 9 -15 12 -12 3 3 0 11 -7 18 -10 9 -11 8 -5 -6z"/>
<path d="M3645 2967 c3 -10 5 -23 5 -28 0 -5 12 -8 28 -8 21 1 22 3 6 6 -12 2
-27 14 -33 26 -7 14 -10 15 -6 4z"/>
<path d="M2490 2955 c0 -5 5 -17 10 -25 5 -8 10 -10 10 -5 0 6 -5 17 -10 25
-5 8 -10 11 -10 5z"/>
<path d="M4333 2925 c0 -22 2 -30 4 -17 2 12 2 30 0 40 -3 9 -5 -1 -4 -23z"/>
<path d="M2511 2905 c1 -19 18 -51 18 -35 0 8 -4 22 -9 30 -5 8 -9 11 -9 5z"/>
<path d="M2537 2829 c4 -13 8 -18 11 -10 2 7 -1 18 -6 23 -8 8 -9 4 -5 -13z"/>
<path d="M2981 2834 c0 -11 3 -14 6 -6 3 7 2 16 -1 19 -3 4 -6 -2 -5 -13z"/>
<path d="M2556 2781 c10 -37 33 -88 33 -71 0 8 -9 33 -20 55 -10 22 -16 29
-13 16z"/>
<path d="M2972 2750 c0 -14 2 -19 5 -12 2 6 2 18 0 25 -3 6 -5 1 -5 -13z"/>
<path d="M4308 2693 c7 -3 16 -2 19 1 4 3 -2 6 -13 5 -11 0 -14 -3 -6 -6z"/>
<path d="M4258 2683 c7 -3 16 -2 19 1 4 3 -2 6 -13 5 -11 0 -14 -3 -6 -6z"/>
<path d="M4123 2673 c20 -2 54 -2 75 0 20 2 3 4 -38 4 -41 0 -58 -2 -37 -4z"/>
<path d="M2982 2660 c0 -8 4 -26 8 -40 6 -20 8 -21 8 -5 0 11 -3 29 -8 40 -5
12 -8 14 -8 5z"/>
<path d="M2375 2613 c121 -7 253 -7 248 0 -2 4 -70 6 -151 5 -81 -1 -124 -3
-97 -5z"/>
<path d="M2225 2579 c-4 -6 -5 -12 -2 -15 2 -3 7 2 10 11 7 17 1 20 -8 4z"/>
<path d="M2631 2580 c0 -8 4 -22 9 -30 12 -18 12 -2 0 25 -6 13 -9 15 -9 5z"/>
<path d="M3000 2587 c-1 -24 55 -109 99 -150 27 -26 53 -47 57 -47 3 0 -16 20
-43 44 -27 25 -63 71 -81 103 -17 32 -32 54 -32 50z"/>
<path d="M2671 2464 c0 -11 3 -14 6 -6 3 7 2 16 -1 19 -3 4 -6 -2 -5 -13z"/>
<path d="M3177 2379 c7 -7 15 -10 18 -7 3 3 -2 9 -12 12 -14 6 -15 5 -6 -5z"/>
<path d="M2602 2360 c0 -14 2 -19 5 -12 2 6 2 18 0 25 -3 6 -5 1 -5 -13z"/>
<path d="M3842 2360 c0 -14 2 -19 5 -12 2 6 2 18 0 25 -3 6 -5 1 -5 -13z"/>
<path d="M3210 2366 c0 -2 7 -7 16 -10 8 -3 12 -2 9 4 -6 10 -25 14 -25 6z"/>
<path d="M2938 2343 c7 -3 16 -2 19 1 4 3 -2 6 -13 5 -11 0 -14 -3 -6 -6z"/>
<path d="M3275 2340 c19 -8 73 -14 64 -6 -2 2 -22 6 -44 9 -28 5 -34 4 -20 -3z"/>
<path d="M3578 2343 c7 -3 16 -2 19 1 4 3 -2 6 -13 5 -11 0 -14 -3 -6 -6z"/>
<path d="M3388 2323 c23 -2 59 -2 80 0 20 2 1 4 -43 4 -44 0 -61 -2 -37 -4z"/>
<path d="M616 2197 c3 -10 9 -15 12 -12 3 3 0 11 -7 18 -10 9 -11 8 -5 -6z"/>
<path d="M640 2166 c0 -2 8 -10 18 -17 15 -13 16 -12 3 4 -13 16 -21 21 -21
13z"/>
<path d="M2148 2135 c-76 -43 -77 -175 -2 -215 59 -32 175 -2 143 37 -10 11
-15 11 -35 -2 -56 -37 -119 4 -119 77 0 64 59 98 117 67 16 -8 24 -8 35 3 12
13 12 16 -2 28 -24 20 -105 23 -137 5z"/>
<path d="M2460 2143 c-61 -22 -93 -103 -66 -166 20 -49 57 -71 119 -70 45 1
55 5 84 37 28 30 33 43 33 84 0 54 -17 85 -60 107 -29 15 -81 19 -110 8z m105
-59 c36 -39 30 -97 -14 -131 -46 -35 -121 10 -121 74 0 74 86 110 135 57z"/>
<path d="M2730 2031 l0 -121 73 0 c89 0 117 15 117 65 0 25 -6 37 -21 45 -19
11 -19 13 -5 29 22 24 20 54 -5 77 -15 13 -40 20 -90 22 l-69 4 0 -121z m130
64 c19 -23 -5 -45 -51 -45 -37 0 -39 2 -39 30 0 28 2 30 39 30 22 0 44 -6 51
-15z m4 -91 c23 -9 20 -41 -4 -54 -12 -6 -35 -10 -53 -8 -28 3 -32 7 -35 36
-3 31 -2 32 37 32 21 0 46 -3 55 -6z"/>
<path d="M3020 2031 c0 -114 1 -121 20 -121 17 0 20 7 20 40 0 36 2 40 25 40
18 0 33 -11 53 -40 17 -25 35 -39 50 -40 28 0 28 3 -2 47 l-25 36 25 19 c18
15 24 29 24 57 0 56 -24 73 -115 79 l-75 5 0 -122z m134 63 c9 -8 16 -22 16
-29 0 -21 -41 -45 -77 -45 -32 0 -33 1 -33 45 l0 45 39 0 c23 0 46 -7 55 -16z"/>
<path d="M3391 2128 c-5 -13 -27 -67 -49 -120 l-41 -98 24 0 c18 0 26 7 31 25
6 23 11 25 65 25 54 0 59 -2 65 -25 4 -18 13 -25 31 -25 14 0 23 4 21 9 -1 5
-23 59 -48 120 -39 95 -48 111 -68 111 -14 0 -26 -8 -31 -22z m52 -85 l17 -43
-35 0 c-25 0 -35 4 -35 15 0 17 29 79 34 73 2 -1 10 -22 19 -45z"/>
<path d="M3630 2030 c0 -113 1 -120 20 -120 21 0 24 14 23 108 0 23 2 42 6 42
4 0 32 -34 62 -75 39 -54 60 -75 77 -75 22 0 22 2 22 120 0 113 -1 120 -20
120 -18 0 -20 -7 -20 -80 0 -44 -3 -80 -7 -80 -5 0 -22 20 -39 43 -16 23 -42
59 -58 80 -15 21 -36 37 -47 37 -18 0 -19 -8 -19 -120z"/>
<path d="M3940 2130 c0 -16 8 -19 61 -22 l60 -3 -60 -83 c-34 -45 -61 -89 -61
-97 0 -12 18 -15 95 -15 78 0 95 3 95 15 0 12 -13 15 -60 15 -36 0 -60 4 -60
11 0 6 27 48 61 94 33 46 58 89 54 95 -3 6 -44 10 -96 10 -82 0 -89 -2 -89
-20z"/>
<path d="M4289 2083 c-15 -37 -36 -92 -48 -120 l-21 -53 24 0 c17 0 26 7 30
25 6 23 11 25 65 25 54 0 59 -2 65 -25 5 -18 13 -25 30 -25 l24 0 -47 118
c-41 101 -51 117 -72 120 -21 2 -27 -5 -50 -65z m69 -26 c18 -49 15 -57 -18
-57 -16 0 -30 5 -30 12 0 18 23 78 30 78 3 0 11 -15 18 -33z"/>
<path d="M680 2117 c0 -2 15 -16 33 -33 l32 -29 -29 33 c-28 30 -36 37 -36 29z"/>
</g>
</svg>
